<?xml version="1.0" encoding="UTF-8" standalone="no"?>
<!DOCTYPE svg PUBLIC "-//W3C//DTD SVG 1.1//EN"
 "http://www.w3.org/Graphics/SVG/1.1/DTD/svg11.dtd">
<!-- Generated by graphviz version 2.43.0 (0)
 -->
<!-- Title: %3 Pages: 1 -->
<svg width="747pt" height="431pt"
 viewBox="0.00 0.00 746.50 430.80" xmlns="http://www.w3.org/2000/svg" xmlns:xlink="http://www.w3.org/1999/xlink">
<g id="graph0" class="graph" transform="scale(1 1) rotate(0) translate(4 426.8)">
<title>%3</title>
<polygon fill="white" stroke="transparent" points="-4,4 -4,-426.8 742.5,-426.8 742.5,4 -4,4"/>
<!-- ASW_3F -->
<g id="node1" class="node">
<title>ASW_3F</title>
<polygon fill="#9aff9a" stroke="black" points="253.9,-410.8 221.9,-410.8 221.9,-388.8 253.9,-388.8 253.9,-410.8"/>
<text text-anchor="middle" x="201.4" y="-414" font-family="NotoSans" font-size="11.00">ASW_3F</text>
</g>
<!-- DSW -->
<g id="node5" class="node">
<title>DSW</title>
<polygon fill="#8968cd" stroke="black" points="160.3,-266.8 128.3,-266.8 128.3,-244.8 160.3,-244.8 160.3,-266.8"/>
<text text-anchor="middle" x="115.8" y="-270" font-family="NotoSans" font-size="11.00">DSW</text>
</g>
<!-- ASW_3F&#45;&#45;DSW -->
<g id="edge21" class="edge">
<title>ASW_3F&#45;&#45;DSW</title>
<path fill="none" stroke="orange" stroke-width="2" d="M221.6,-399C194.78,-399 144.3,-399 144.3,-399 144.3,-399 144.3,-300.79 144.3,-267.04"/>
</g>
<!-- ASW_2F -->
<g id="node2" class="node">
<title>ASW_2F</title>
<polygon fill="#9aff9a" stroke="black" points="253.9,-266.8 221.9,-266.8 221.9,-244.8 253.9,-244.8 253.9,-266.8"/>
<text text-anchor="middle" x="201.4" y="-270" font-family="NotoSans" font-size="11.00">ASW_2F</text>
</g>
<!-- ASW_2F&#45;&#45;DSW -->
<g id="edge22" class="edge">
<title>ASW_2F&#45;&#45;DSW</title>
<path fill="none" stroke="orange" stroke-width="2" d="M221.6,-255C204.42,-255 177.53,-255 160.42,-255"/>
</g>
<!-- waypoint_2F_hub_a_above -->
<g id="node20" class="node">
<title>waypoint_2F_hub_a_above</title>
<ellipse fill="black" stroke="black" cx="345.9" cy="-320.6" rx="0.04" ry="0.04"/>
</g>
<!-- ASW_2F&#45;&#45;waypoint_2F_hub_a_above -->
<g id="edge1" class="edge">
<title>ASW_2F&#45;&#45;waypoint_2F_hub_a_above</title>
<path fill="none" stroke="lightblue" stroke-width="2" d="M237.9,-266.98C237.9,-285.38 237.9,-320 237.9,-320 237.9,-320 342.55,-320 345.82,-320"/>
</g>
<!-- ASW_1F -->
<g id="node3" class="node">
<title>ASW_1F</title>
<polygon fill="#9aff9a" stroke="black" points="253.9,-122.8 221.9,-122.8 221.9,-100.8 253.9,-100.8 253.9,-122.8"/>
<text text-anchor="middle" x="201.4" y="-126" font-family="NotoSans" font-size="11.00">ASW_1F</text>
</g>
<!-- ASW_1F&#45;&#45;DSW -->
<g id="edge23" class="edge">
<title>ASW_1F&#45;&#45;DSW</title>
<path fill="none" stroke="orange" stroke-width="2" d="M221.71,-111C196.23,-111 149.63,-111 149.63,-111 149.63,-111 149.63,-210.3 149.63,-244.44"/>
</g>
<!-- waypoint_1F_hub_a -->
<g id="node23" class="node">
<title>waypoint_1F_hub_a</title>
<ellipse fill="black" stroke="black" cx="345.9" cy="-147.8" rx="0.04" ry="0.04"/>
</g>
<!-- ASW_1F&#45;&#45;waypoint_1F_hub_a -->
<g id="edge3" class="edge">
<title>ASW_1F&#45;&#45;waypoint_1F_hub_a</title>
<path fill="none" stroke="lightblue" stroke-width="2" d="M237.9,-122.94C237.9,-133.25 237.9,-147 237.9,-147 237.9,-147 342.55,-147 345.82,-147"/>
</g>
<!-- ASW_BF -->
<g id="node4" class="node">
<title>ASW_BF</title>
<polygon fill="#9aff9a" stroke="black" points="361.9,-22 329.9,-22 329.9,0 361.9,0 361.9,-22"/>
<text text-anchor="middle" x="308.4" y="-25.2" font-family="NotoSans" font-size="11.00">ASW_BF</text>
</g>
<!-- ASW_BF&#45;&#45;DSW -->
<g id="edge24" class="edge">
<title>ASW_BF&#45;&#45;DSW</title>
<path fill="none" stroke="orange" stroke-width="2" d="M329.66,-10C280.88,-10 138.97,-10 138.97,-10 138.97,-10 138.97,-196.51 138.97,-244.6"/>
</g>
<!-- to_serverroom -->
<g id="node15" class="node">
<title>to_serverroom</title>
<text text-anchor="middle" x="79.5" y="-253" font-family="NotoSans" font-size="11.00">≈</text>
<text text-anchor="middle" x="38" y="-265" font-family="NotoSans" font-size="11.00">to_serverroom</text>
</g>
<!-- DSW&#45;&#45;to_serverroom -->
<g id="edge25" class="edge">
<title>DSW&#45;&#45;to_serverroom</title>
<path fill="none" stroke="#eeee00" stroke-width="2" d="M128.28,-255C113.14,-255 91.52,-255 83.07,-255"/>
</g>
<!-- hub_2Fa -->
<g id="node6" class="node">
<title>hub_2Fa</title>
<polygon fill="lightgray" stroke="black" points="363.4,-271.8 328.4,-271.8 328.4,-239.8 363.4,-239.8 363.4,-271.8"/>
<text text-anchor="middle" x="345.9" y="-253" font-family="NotoSans" font-size="11.00">24p</text>
<text text-anchor="middle" x="306.4" y="-275" font-family="NotoSans" font-size="11.00">hub_2Fa</text>
</g>
<!-- hub_2Fb -->
<g id="node7" class="node">
<title>hub_2Fb</title>
<polygon fill="lightgray" stroke="black" points="413.8,-301.8 378.8,-301.8 378.8,-281.8 413.8,-281.8 413.8,-301.8"/>
<text text-anchor="middle" x="396.3" y="-289" font-family="NotoSans" font-size="11.00">16p</text>
<text text-anchor="middle" x="356.3" y="-305" font-family="NotoSans" font-size="11.00">hub_2Fb</text>
</g>
<!-- waypoint_2F_hub_b_right -->
<g id="node21" class="node">
<title>waypoint_2F_hub_b_right</title>
<ellipse fill="black" stroke="black" cx="403.5" cy="-313.4" rx="0.04" ry="0.04"/>
</g>
<!-- hub_2Fb&#45;&#45;waypoint_2F_hub_b_right -->
<g id="edge10" class="edge">
<title>hub_2Fb&#45;&#45;waypoint_2F_hub_b_right</title>
<path fill="none" stroke="#ee0000" stroke-width="1.5" d="M403.5,-301.84C403.5,-307.13 403.5,-312.66 403.5,-313.33"/>
</g>
<!-- waypoint_2F_hub_b_below -->
<g id="node22" class="node">
<title>waypoint_2F_hub_b_below</title>
<ellipse fill="black" stroke="black" cx="396.3" cy="-227" rx="0.04" ry="0.04"/>
</g>
<!-- hub_2Fb&#45;&#45;waypoint_2F_hub_b_below -->
<g id="edge8" class="edge">
<title>hub_2Fb&#45;&#45;waypoint_2F_hub_b_below</title>
<path fill="none" stroke="#ee0000" stroke-width="1.5" d="M396.3,-281.67C396.3,-264.02 396.3,-229.26 396.3,-227.11"/>
</g>
<!-- hub_1Fa -->
<g id="node8" class="node">
<title>hub_1Fa</title>
<polygon fill="lightgray" stroke="black" points="363.4,-127.8 328.4,-127.8 328.4,-95.8 363.4,-95.8 363.4,-127.8"/>
<text text-anchor="middle" x="345.9" y="-109" font-family="NotoSans" font-size="11.00">24p</text>
<text text-anchor="middle" x="306.4" y="-131" font-family="NotoSans" font-size="11.00">hub_1Fa</text>
</g>
<!-- hub_1Fb -->
<g id="node9" class="node">
<title>hub_1Fb</title>
<polygon fill="lightgray" stroke="black" points="413.8,-127.8 378.8,-127.8 378.8,-95.8 413.8,-95.8 413.8,-127.8"/>
<text text-anchor="middle" x="396.3" y="-109" font-family="NotoSans" font-size="11.00">24p</text>
<text text-anchor="middle" x="356.3" y="-131" font-family="NotoSans" font-size="11.00">hub_1Fb</text>
</g>
<!-- hub_1Fa&#45;&#45;hub_1Fb -->
<g id="edge5" class="edge">
<title>hub_1Fa&#45;&#45;hub_1Fb</title>
<path fill="none" stroke="lightblue" stroke-width="2" d="M363.53,-106C368.41,-106 373.71,-106 378.6,-106"/>
</g>
<!-- waypoint_1F_hub_b -->
<g id="node24" class="node">
<title>waypoint_1F_hub_b</title>
<ellipse fill="black" stroke="black" cx="396.3" cy="-169.4" rx="0.04" ry="0.04"/>
</g>
<!-- hub_1Fb&#45;&#45;waypoint_1F_hub_b -->
<g id="edge17" class="edge">
<title>hub_1Fb&#45;&#45;waypoint_1F_hub_b</title>
<path fill="none" stroke="#ee0000" stroke-width="1.5" d="M396.3,-127.84C396.3,-144.36 396.3,-167.88 396.3,-169.33"/>
</g>
<!-- waypoint_1F_2F -->
<g id="node25" class="node">
<title>waypoint_1F_2F</title>
<ellipse fill="black" stroke="black" cx="389.1" cy="-313.4" rx="0.04" ry="0.04"/>
</g>
<!-- hub_1Fb&#45;&#45;waypoint_1F_2F -->
<g id="edge6" class="edge">
<title>hub_1Fb&#45;&#45;waypoint_1F_2F</title>
<path fill="none" stroke="#ee0000" stroke-width="1.5" d="M378.8,-117C374.5,-117 371.1,-117 371.1,-117 371.1,-117 371.1,-313 371.1,-313 371.1,-313 387.99,-313 389.05,-313"/>
</g>
<!-- ceiling_hub_a -->
<g id="node10" class="node">
<title>ceiling_hub_a</title>
<polygon fill="lightgray" stroke="black" points="649.9,-322.4 617.9,-322.4 617.9,-304.4 649.9,-304.4 649.9,-322.4"/>
<text text-anchor="middle" x="582.4" y="-325.6" font-family="NotoSans" font-size="11.00">ceiling_hub_a</text>
</g>
<!-- printer_a -->
<g id="node12" class="node">
<title>printer_a</title>
<polygon fill="white" stroke="black" points="644.9,-266.8 622.9,-266.8 622.9,-244.8 644.9,-244.8 644.9,-266.8"/>
<text text-anchor="middle" x="599.4" y="-270" font-family="NotoSans" font-size="11.00">printer_a</text>
</g>
<!-- ceiling_hub_a&#45;&#45;printer_a -->
<g id="edge13" class="edge">
<title>ceiling_hub_a&#45;&#45;printer_a</title>
<path fill="none" stroke="#ee0000" stroke-width="1.5" d="M633.9,-304.15C633.9,-293.97 633.9,-277.63 633.9,-266.8"/>
</g>
<!-- to_further_2Fb -->
<g id="node17" class="node">
<title>to_further_2Fb</title>
<text text-anchor="middle" x="684.3" y="-310.6" font-family="NotoSans" font-size="11.00">≈</text>
</g>
<!-- ceiling_hub_a&#45;&#45;to_further_2Fb -->
<g id="edge14" class="edge">
<title>ceiling_hub_a&#45;&#45;to_further_2Fb</title>
<path fill="none" stroke="#ee0000" stroke-width="1.5" d="M650.12,-313C660.94,-313 674.3,-313 680.64,-313"/>
</g>
<!-- ceiling_hub_b -->
<g id="node11" class="node">
<title>ceiling_hub_b</title>
<polygon fill="lightgray" stroke="black" points="649.9,-178.4 617.9,-178.4 617.9,-160.4 649.9,-160.4 649.9,-178.4"/>
<text text-anchor="middle" x="581.9" y="-181.6" font-family="NotoSans" font-size="11.00">ceiling_hub_b</text>
</g>
<!-- printer_c -->
<g id="node14" class="node">
<title>printer_c</title>
<polygon fill="white" stroke="black" points="695.3,-122.8 673.3,-122.8 673.3,-100.8 695.3,-100.8 695.3,-122.8"/>
<text text-anchor="middle" x="650.3" y="-126" font-family="NotoSans" font-size="11.00">printer_c</text>
</g>
<!-- ceiling_hub_b&#45;&#45;printer_c -->
<g id="edge20" class="edge">
<title>ceiling_hub_b&#45;&#45;printer_c</title>
<path fill="none" stroke="#ee0000" stroke-width="1.5" d="M649.97,-169C662.24,-169 677.05,-169 677.05,-169 677.05,-169 677.05,-139.45 677.05,-122.83"/>
</g>
<!-- printer_b -->
<g id="node13" class="node">
<title>printer_b</title>
<polygon fill="white" stroke="black" points="738.5,-266.8 716.5,-266.8 716.5,-244.8 738.5,-244.8 738.5,-266.8"/>
<text text-anchor="middle" x="692.5" y="-270" font-family="NotoSans" font-size="11.00">printer_b</text>
</g>
<!-- to_further_2Fa -->
<g id="node16" class="node">
<title>to_further_2Fa</title>
<text text-anchor="middle" x="525.9" y="-310.6" font-family="NotoSans" font-size="11.00">≈</text>
</g>
<!-- to_further_2Fa&#45;&#45;ceiling_hub_a -->
<g id="edge12" class="edge">
<title>to_further_2Fa&#45;&#45;ceiling_hub_a</title>
<path fill="none" stroke="#ee0000" stroke-width="1.5" d="M529.49,-313C543.11,-313 592.05,-313 617.8,-313"/>
</g>
<!-- waypoint_2F_farright -->
<g id="node26" class="node">
<title>waypoint_2F_farright</title>
<ellipse fill="black" stroke="black" cx="727.5" cy="-313.4" rx="0.04" ry="0.04"/>
</g>
<!-- to_further_2Fb&#45;&#45;waypoint_2F_farright -->
<g id="edge15" class="edge">
<title>to_further_2Fb&#45;&#45;waypoint_2F_farright</title>
<path fill="none" stroke="#ee0000" stroke-width="1.5" d="M687.98,-313C698.1,-313 725.7,-313 727.42,-313"/>
</g>
<!-- to_further_1F -->
<g id="node18" class="node">
<title>to_further_1F</title>
<text text-anchor="middle" x="525.9" y="-166.6" font-family="NotoSans" font-size="11.00">≈</text>
</g>
<!-- to_further_1F&#45;&#45;ceiling_hub_b -->
<g id="edge19" class="edge">
<title>to_further_1F&#45;&#45;ceiling_hub_b</title>
<path fill="none" stroke="#ee0000" stroke-width="1.5" d="M529.49,-169C543.11,-169 592.05,-169 617.8,-169"/>
</g>
<!-- to_sameroom -->
<g id="node19" class="node">
<title>to_sameroom</title>
<text text-anchor="middle" x="417.9" y="-224.2" font-family="NotoSans" font-size="11.00">≈</text>
<text text-anchor="middle" x="377.9" y="-224.2" font-family="NotoSans" font-size="11.00">to_sameroom</text>
</g>
<!-- waypoint_2F_hub_a_above&#45;&#45;hub_2Fa -->
<g id="edge2" class="edge">
<title>waypoint_2F_hub_a_above&#45;&#45;hub_2Fa</title>
<path fill="none" stroke="lightblue" stroke-width="2" d="M345.9,-320.55C345.9,-319.24 345.9,-290.79 345.9,-272.04"/>
</g>
<!-- waypoint_2F_hub_b_right&#45;&#45;to_further_2Fa -->
<g id="edge11" class="edge">
<title>waypoint_2F_hub_b_right&#45;&#45;to_further_2Fa</title>
<path fill="none" stroke="#ee0000" stroke-width="1.5" d="M403.59,-313C406.9,-313 502.16,-313 522.22,-313"/>
</g>
<!-- waypoint_2F_hub_b_below&#45;&#45;to_sameroom -->
<g id="edge9" class="edge">
<title>waypoint_2F_hub_b_below&#45;&#45;to_sameroom</title>
<path fill="none" stroke="#ee0000" stroke-width="1.5" d="M396.36,-226C397.29,-226 408.47,-226 414.35,-226"/>
</g>
<!-- waypoint_1F_hub_a&#45;&#45;hub_1Fa -->
<g id="edge4" class="edge">
<title>waypoint_1F_hub_a&#45;&#45;hub_1Fa</title>
<path fill="none" stroke="lightblue" stroke-width="2" d="M345.9,-147.7C345.9,-146.61 345.9,-137.1 345.9,-128.14"/>
</g>
<!-- waypoint_1F_hub_b&#45;&#45;to_further_1F -->
<g id="edge18" class="edge">
<title>waypoint_1F_hub_b&#45;&#45;to_further_1F</title>
<path fill="none" stroke="#ee0000" stroke-width="1.5" d="M396.39,-169C399.92,-169 501.65,-169 522.27,-169"/>
</g>
<!-- waypoint_1F_2F&#45;&#45;hub_2Fb -->
<g id="edge7" class="edge">
<title>waypoint_1F_2F&#45;&#45;hub_2Fb</title>
<path fill="none" stroke="#ee0000" stroke-width="1.5" d="M389.1,-313.34C389.1,-312.7 389.1,-307.32 389.1,-302.09"/>
</g>
<!-- waypoint_2F_farright&#45;&#45;printer_b -->
<g id="edge16" class="edge">
<title>waypoint_2F_farright&#45;&#45;printer_b</title>
<path fill="none" stroke="#ee0000" stroke-width="1.5" d="M727.5,-313.23C727.5,-310.83 727.5,-282.82 727.5,-266.82"/>
</g>
</g>
</svg>
